<?xml version="1.0" encoding="UTF-8" standalone="no"?>
<!-- Created with Inkscape (http://www.inkscape.org/) -->

<svg
   width="8.5793371mm"
   height="9.418705mm"
   viewBox="0 0 8.5793371 9.418705"
   version="1.1"
   id="svg1492"
   inkscape:version="1.1 (c4e8f9ed74, 2021-05-24)"
   sodipodi:docname="wittycreatures-website-bronze.svg"
   xmlns:inkscape="http://www.inkscape.org/namespaces/inkscape"
   xmlns:sodipodi="http://sodipodi.sourceforge.net/DTD/sodipodi-0.dtd"
   xmlns="http://www.w3.org/2000/svg"
   xmlns:svg="http://www.w3.org/2000/svg">
  <sodipodi:namedview
     id="namedview1494"
     pagecolor="#ffffff"
     bordercolor="#666666"
     borderopacity="1.0"
     inkscape:pageshadow="2"
     inkscape:pageopacity="0.0"
     inkscape:pagecheckerboard="0"
     inkscape:document-units="mm"
     showgrid="false"
     fit-margin-top="0"
     fit-margin-left="0"
     fit-margin-right="0"
     fit-margin-bottom="0"
     inkscape:zoom="1.0998546"
     inkscape:cx="-586.89576"
     inkscape:cy="309.58638"
     inkscape:window-width="2560"
     inkscape:window-height="1381"
     inkscape:window-x="0"
     inkscape:window-y="0"
     inkscape:window-maximized="1"
     inkscape:current-layer="layer1" />
  <defs
     id="defs1489" />
  <g
     inkscape:label="Layer 1"
     inkscape:groupmode="layer"
     id="layer1"
     transform="translate(-263.97183,-33.859316)">
    <g
       id="g61164"
       transform="matrix(0.06275609,0,0,0.06275609,256.08171,16.88503)">
      <path
         style="fill:#e9c6af;stroke-width:0.264583"
         d="m 195.05109,420.49675 42.99831,-0.0681 -0.0697,-8.92889 -0.0697,-8.9289 -5.55625,-0.14314 -5.55625,-0.14315 5.68855,0.0109 5.68854,0.0109 v 9.12813 9.12812 l -43.06094,0.001 -43.06095,10e-4 42.99832,-0.0681 z M 152.05248,402.3724 c 1.6e-4,-0.10914 2.67921,-0.19844 5.95343,-0.19844 h 5.95312 v -7.39272 c 0,-4.06599 0.0893,-7.44804 0.19844,-7.51566 0.10914,-0.0676 0.13891,3.28887 0.0662,7.45886 l -0.1323,7.58181 -6.01957,0.13229 c -3.31077,0.0728 -6.01944,0.043 -6.01927,-0.0661 z m 33.6963,-17.26407 c -7.9e-4,-1.30968 0.0439,-1.87882 0.0994,-1.26475 0.0555,0.61407 0.0562,1.68563 0.002,2.38125 -0.0548,0.69561 -0.1002,0.19319 -0.10101,-1.1165 z m 3.87484,-13.52803 c -1.8281,-0.2171 -7.05446,-1.5026 -9.26042,-2.27773 -11.07639,-3.892 -20.79274,-12.98197 -25.386,-23.74944 -1.02265,-2.39728 -2.24238,-6.19213 -2.65781,-8.26905 -0.1949,-0.9744 -0.47716,-1.6146 -0.78434,-1.779 -1.20296,-0.64381 -9.00609,-7.48765 -9.00814,-7.90072 -5.3e-4,-0.0964 0.92226,0.70267 2.05052,1.77561 2.16623,2.06001 6.7438,5.8544 7.06277,5.8544 0.10363,0 0.1248,-0.62507 0.0471,-1.38906 -0.0777,-0.76398 -0.2198,-2.87734 -0.31566,-4.69635 l -0.17431,-3.30729 -1.88073,-1.91823 c -1.0344,-1.05503 -1.80635,-1.91823 -1.71543,-1.91823 0.0909,0 0.90896,0.7702 1.81789,1.71156 0.90892,0.94136 1.74719,1.6531 1.86281,1.58165 0.11562,-0.0715 0.21467,-6.8614 0.22012,-15.08876 0.005,-8.22736 0.0916,-15.09106 0.19148,-15.25265 0.11872,-0.1921 0.0244,-0.2335 -0.27243,-0.11959 -0.24971,0.0958 -0.39878,0.0848 -0.33126,-0.0244 0.0675,-0.10925 0.15818,-1.92359 0.20147,-4.03186 l 0.0787,-3.83322 -12.82158,-0.13611 -12.82158,-0.13611 12.90905,-0.0623 12.90906,-0.0623 -0.0333,-7.87135 -0.0333,-7.87136 40.3055,-0.13229 c 22.16803,-0.0728 40.35511,-0.10253 40.41574,-0.0661 0.0606,0.0364 -0.0841,0.0661 -0.32169,0.0661 -0.39665,0 -0.4395,2.62124 -0.5245,32.08073 -0.0956,33.14256 -0.0874,32.86509 -1.10845,37.63698 -1.38364,6.46672 -3.49852,12.11037 -6.29594,16.80104 -0.69835,1.17099 -3.49854,4.90623 -4.46287,5.95313 -0.40212,0.43656 -0.9456,1.03834 -1.20771,1.33729 -0.26212,0.29896 -1.05925,0.98357 -1.7714,1.52136 -1.48494,1.12138 -1.44413,1.22107 0.16219,0.39613 3.7398,-1.92062 8.1738,-5.37814 11.40647,-8.89447 1.82793,-1.98834 5.73345,-7.32421 5.73345,-7.83327 0,-0.24177 1.12588,-2.02581 1.21943,-1.93227 0.35856,0.35857 -3.78511,6.59544 -6.19194,9.31981 -6.2585,7.08423 -15.3892,12.30857 -24.52925,14.03497 -2.2928,0.43307 -12.32494,0.76295 -14.68365,0.48283 z m 45.52065,-24.2076 c -0.0248,-0.33146 1.09413,-2.6534 1.21863,-2.5289 0.0706,0.0706 -0.1719,0.7056 -0.53895,1.41105 -0.36705,0.70546 -0.67291,1.20849 -0.67968,1.11785 z m 1.3106,-2.93284 c 0,-0.12232 0.48334,-1.58121 0.93668,-2.82721 0.0738,-0.20273 0.18801,-0.31469 0.25389,-0.24881 0.0659,0.0659 -0.12601,0.76753 -0.42643,1.55922 -0.51227,1.34999 -0.76414,1.84995 -0.76414,1.5168 z M 238.08734,339.6 c -0.004,-0.29104 0.0945,-0.76729 0.21961,-1.05833 0.28972,-0.67422 0.28972,0.0214 0,0.92604 -0.1703,0.53174 -0.21336,0.55768 -0.21961,0.13229 z m 0.50508,-2.13871 c 0.0127,-0.30823 0.0754,-0.37092 0.15985,-0.15986 0.0764,0.191 0.067,0.4192 -0.0209,0.50712 -0.0879,0.0879 -0.15046,-0.0684 -0.13897,-0.34726 z m 0.26458,-1.32292 c 0.0127,-0.30823 0.0754,-0.37092 0.15985,-0.15985 0.0764,0.19099 0.067,0.4192 -0.0209,0.50711 -0.0879,0.0879 -0.15045,-0.0684 -0.13897,-0.34726 z m 0.29528,-1.83004 c 0.005,-0.43656 0.0647,-0.58312 0.13177,-0.32569 0.0671,0.25743 0.0627,0.61462 -0.01,0.79375 -0.0725,0.17913 -0.12737,-0.0315 -0.12197,-0.46806 z m 1.93279,-2.53828 c 1.01865,-0.9206 2.47717,-2.28556 3.24115,-3.03323 0.76398,-0.74768 1.38906,-1.26893 1.38906,-1.15834 0,0.23267 -4.50988,4.42236 -5.68854,5.28467 -0.43656,0.31939 0.0397,-0.1725 1.05833,-1.0931 z m -99.92372,-5.63371 c -1.56652,-1.75858 -2.13063,-2.54363 -1.82777,-2.54363 0.15608,0 0.28379,0.0953 0.28379,0.21177 0,0.11647 0.6097,0.89583 1.35488,1.73191 0.74519,0.83609 1.31074,1.558 1.25678,1.60426 -0.054,0.0463 -0.53442,-0.40568 -1.06768,-1.00431 z m 104.81852,1.02083 c 0,-0.0948 0.59531,-0.84029 1.32291,-1.65665 0.72761,-0.81635 1.32292,-1.57957 1.32292,-1.69604 0,-0.11648 0.12907,-0.21177 0.28681,-0.21177 0.15775,0 -0.0718,0.44648 -0.5101,0.99219 -1.11848,1.39253 -2.42254,2.7772 -2.42254,2.57227 z m -108.02355,-4.95352 c -0.96544,-1.20261 -1.34785,-1.78594 -1.17078,-1.78594 0.0604,0 0.59953,0.65484 1.19808,1.45521 1.28529,1.71866 1.26679,1.94272 -0.0273,0.33073 z m 112.28741,-0.26459 c 1.08991,-1.50196 1.54835,-1.95958 1.06023,-1.05833 -0.13793,0.25466 -0.68131,0.93927 -1.2075,1.52135 -0.91693,1.01432 -0.91081,0.99507 0.14727,-0.46302 z m -10.61386,-13.01511 c 0,-7.63126 0.0893,-13.93024 0.19843,-13.99774 0.10914,-0.0675 0.16658,6.0572 0.12764,13.61043 -0.0389,7.55323 0.0206,13.72701 0.13229,13.7195 0.1117,-0.008 0.60756,-0.51353 1.1019,-1.12448 0.49434,-0.61096 0.85153,-0.976 0.79375,-0.8112 -0.1723,0.49141 -1.87507,2.4785 -2.12387,2.4785 -0.12754,0 -0.23014,-6.18581 -0.23014,-13.87501 z m -92.9609,12.12881 c -0.68286,-0.93731 -0.43734,-0.99342 0.31071,-0.071 0.33849,0.41739 0.51708,0.75514 0.39687,0.75057 -0.12021,-0.005 -0.43862,-0.31037 -0.70758,-0.67955 z m -11.75139,-3.21474 c -1.42988,-2.23618 -2.26836,-3.77031 -2.06068,-3.77031 0.0728,0 0.33091,0.38695 0.57366,0.85989 0.24276,0.47295 0.93975,1.63381 1.54888,2.57969 1.40916,2.18821 1.52036,2.38125 1.37173,2.38125 -0.0673,0 -0.71246,-0.92273 -1.43359,-2.05052 z m 9.38625,0.13229 c -1.58756,-2.17099 -3.89498,-5.84288 -3.88826,-6.18755 0.002,-0.12573 0.26125,0.18812 0.57511,0.69745 1.0189,1.65347 3.8728,5.93384 4.45432,6.68073 0.31158,0.40018 0.49789,0.7276 0.41403,0.7276 -0.0839,0 -0.78369,-0.8632 -1.5552,-1.91823 z m 98.49423,1.19063 c 0.58152,-0.74689 3.43542,-5.02726 4.45433,-6.68073 0.31385,-0.50933 0.57265,-0.82318 0.5751,-0.69745 0.0113,0.57868 -5.04356,8.10578 -5.44346,8.10578 -0.0839,0 0.10246,-0.32742 0.41403,-0.7276 z m 9.16473,0.39687 c 0.10633,-0.1819 0.69171,-1.10463 1.30083,-2.05052 0.60913,-0.94588 1.30613,-2.10674 1.54888,-2.57969 0.24275,-0.47294 0.5009,-0.85989 0.57366,-0.85989 0.0728,0 -0.0661,0.38695 -0.30861,0.85989 -0.60109,1.17231 -3.03395,4.96094 -3.18565,4.96094 -0.0673,0 -0.0354,-0.14883 0.0709,-0.33073 z m -121.17037,-9.42029 c -0.38503,-0.85797 -0.69459,-1.66411 -0.68791,-1.79144 0.007,-0.12732 0.36501,0.53134 0.79629,1.4637 0.43129,0.93236 0.74085,1.73851 0.68792,1.79144 -0.0529,0.0529 -0.41126,-0.60574 -0.7963,-1.4637 z m 125.7831,1.51874 c -0.007,-0.0894 0.34825,-0.92281 0.78895,-1.85209 0.44069,-0.92927 0.72304,-1.39193 0.62743,-1.02813 -0.18257,0.69469 -1.39514,3.16045 -1.41638,2.88022 z m -116.57216,-0.51657 c -0.0959,-0.1552 -0.11765,-0.33893 -0.0483,-0.40829 0.0693,-0.0693 0.1966,0.0576 0.28277,0.28219 0.17891,0.46622 0.0264,0.54823 -0.23447,0.1261 z m 107.97789,-0.06 c 0.0994,-0.26093 0.2473,-0.40778 0.32877,-0.32631 0.0815,0.0815 1.7e-4,0.29495 -0.18066,0.47443 -0.2613,0.25936 -0.29169,0.22897 -0.14811,-0.14812 z m -108.50706,-0.99837 c -0.0959,-0.15521 -0.11765,-0.33894 -0.0483,-0.40829 0.0694,-0.0694 0.19661,0.0576 0.28278,0.28218 0.1789,0.46623 0.0264,0.54824 -0.23448,0.12611 z m 109.03623,-0.06 c 0.0994,-0.26094 0.2473,-0.40778 0.32876,-0.32632 0.0815,0.0815 1.7e-4,0.29496 -0.18065,0.47443 -0.26131,0.25936 -0.2917,0.22897 -0.14811,-0.14811 z m -109.78641,-1.65246 c -0.25532,-0.66535 -0.18,-0.83703 0.1319,-0.30066 0.15444,0.26558 0.22506,0.5386 0.15694,0.60672 -0.0681,0.0681 -0.1981,-0.0696 -0.28884,-0.30606 z m 110.43896,0.27481 c 0,-0.14552 0.11541,-0.44318 0.25648,-0.66146 0.14106,-0.21828 0.25648,-0.27781 0.25648,-0.13229 0,0.14552 -0.11542,0.44318 -0.25648,0.66146 -0.14107,0.21828 -0.25648,0.27781 -0.25648,0.13229 z m -120.08225,-2.82482 c -0.32087,-0.8918 -0.53917,-1.66569 -0.4851,-1.71975 0.0541,-0.0541 0.36341,0.62877 0.68743,1.51742 0.32402,0.88866 0.54232,1.66255 0.48511,1.71976 -0.0572,0.0572 -0.36656,-0.62563 -0.68744,-1.51743 z m 9.11412,1.22709 c -0.25531,-0.66534 -0.18,-0.83702 0.13191,-0.30066 0.15443,0.26558 0.22505,0.53861 0.15693,0.60673 -0.0681,0.0681 -0.1981,-0.0696 -0.28884,-0.30607 z m 111.4973,0.27481 c 0,-0.14552 0.11541,-0.44317 0.25648,-0.66146 0.14106,-0.21828 0.25647,-0.27781 0.25647,-0.13229 0,0.14552 -0.11541,0.44318 -0.25647,0.66146 -0.14107,0.21828 -0.25648,0.27781 -0.25648,0.13229 z m 8.74158,0.0272 c -0.028,-0.36074 1.10042,-3.36213 1.21934,-3.24321 0.0572,0.0572 -0.18967,0.86367 -0.5485,1.79227 -0.35883,0.9286 -0.66071,1.58152 -0.67084,1.45094 z m -121.4413,-3.75338 c 0.0127,-0.30823 0.0754,-0.37092 0.15985,-0.15986 0.0764,0.191 0.067,0.4192 -0.0209,0.50712 -0.0879,0.0879 -0.15046,-0.0684 -0.13897,-0.34726 z m 114.03542,0 c 0.0127,-0.30823 0.0754,-0.37092 0.15985,-0.15986 0.0764,0.191 0.067,0.4192 -0.0209,0.50712 -0.0879,0.0879 -0.15045,-0.0684 -0.13896,-0.34726 z m -114.4205,-1.04652 c -0.0907,-0.23645 -0.15743,-0.56901 -0.1482,-0.73901 0.009,-0.17 0.13084,-0.0239 0.27026,0.32463 0.13943,0.34855 0.20612,0.68111 0.14821,0.73902 -0.0579,0.0579 -0.17953,-0.0882 -0.27027,-0.32464 z m 114.68684,0.27482 c 0.0275,-0.50118 0.46851,-1.34511 0.48387,-0.92605 0.008,0.21829 -0.10087,0.57547 -0.24193,0.79375 -0.14107,0.21829 -0.24994,0.27782 -0.24194,0.1323 z M 135.93409,299.8904 c 0.0127,-0.30822 0.0754,-0.37092 0.15985,-0.15985 0.0764,0.19099 0.067,0.4192 -0.0209,0.50712 -0.0879,0.0879 -0.15045,-0.0684 -0.13896,-0.34727 z m -8.73125,-0.52917 c 0.0127,-0.30822 0.0754,-0.37091 0.15985,-0.15985 0.0764,0.191 0.067,0.4192 -0.0209,0.50712 -0.0879,0.0879 -0.15045,-0.0684 -0.13896,-0.34727 z m 133.61458,0 c 0.0127,-0.30822 0.0754,-0.37091 0.15985,-0.15985 0.0764,0.191 0.067,0.4192 -0.0209,0.50712 -0.0879,0.0879 -0.15046,-0.0684 -0.13897,-0.34727 z m -125.2864,-1.31556 c -0.0996,-0.53098 -0.12819,-1.01834 -0.0635,-1.08301 0.0647,-0.0647 0.1991,0.31684 0.29871,0.84782 0.0996,0.53098 0.1282,1.01833 0.0635,1.08301 -0.0647,0.0647 -0.1991,-0.31685 -0.29871,-0.84782 z m 116.85159,0.54386 c 0,-0.29104 0.0953,-0.82682 0.21184,-1.19062 0.16774,-0.52377 0.21183,-0.55131 0.21183,-0.13229 0,0.29104 -0.0953,0.82682 -0.21183,1.19062 -0.16774,0.52376 -0.21184,0.55131 -0.21184,0.13229 z m -125.42347,-0.66146 c 0,-0.3638 0.0601,-0.51263 0.13345,-0.33072 0.0734,0.1819 0.0734,0.47955 0,0.66145 -0.0734,0.1819 -0.13345,0.0331 -0.13345,-0.33073 z m 134.14375,0 c 0,-0.3638 0.0601,-0.51263 0.13345,-0.33072 0.0734,0.1819 0.0734,0.47955 0,0.66145 -0.0734,0.1819 -0.13345,0.0331 -0.13345,-0.33073 z m -134.40833,-1.32291 c 0,-0.3638 0.0601,-0.51263 0.13345,-0.33073 0.0734,0.1819 0.0734,0.47956 0,0.66146 -0.0734,0.1819 -0.13345,0.0331 -0.13345,-0.33073 z m 134.67291,0 c 0,-0.3638 0.0601,-0.51263 0.13346,-0.33073 0.0734,0.1819 0.0734,0.47956 0,0.66146 -0.0734,0.1819 -0.13346,0.0331 -0.13346,-0.33073 z M 126.40909,295.1279 c 0.0127,-0.30822 0.0754,-0.37092 0.15985,-0.15985 0.0764,0.19099 0.067,0.4192 -0.0209,0.50712 -0.0879,0.0879 -0.15045,-0.0684 -0.13896,-0.34727 z m 8.57807,0.15434 c -0.0899,-0.14552 -0.0374,-0.26458 0.11667,-0.26458 0.15411,0 0.2802,0.11906 0.2802,0.26458 0,0.14552 -0.0525,0.26458 -0.11667,0.26458 -0.0642,0 -0.19027,-0.11906 -0.2802,-0.26458 z m 117.87187,0 c 0,-0.14552 0.12609,-0.26458 0.2802,-0.26458 0.15411,0 0.20661,0.11906 0.11668,0.26458 -0.0899,0.14552 -0.21603,0.26458 -0.2802,0.26458 -0.0642,0 -0.11668,-0.11906 -0.11668,-0.26458 z m 8.75214,-0.15434 c 0.0127,-0.30822 0.0754,-0.37092 0.15985,-0.15985 0.0764,0.19099 0.067,0.4192 -0.0209,0.50712 -0.0879,0.0879 -0.15046,-0.0684 -0.13897,-0.34727 z M 126.1445,293.01128 c 0.0127,-0.30822 0.0754,-0.37091 0.15985,-0.15985 0.0764,0.191 0.067,0.4192 -0.0209,0.50712 -0.0879,0.0879 -0.15045,-0.0683 -0.13897,-0.34727 z m 135.76195,-0.24253 c 0.005,-0.43656 0.0647,-0.58313 0.13177,-0.32569 0.0671,0.25743 0.0627,0.61461 -0.01,0.79375 -0.0725,0.17913 -0.12736,-0.0315 -0.12197,-0.46806 z m -135.97536,-3.30729 c 0,-0.65485 0.0516,-0.92274 0.11467,-0.59532 0.0631,0.32743 0.0631,0.86321 0,1.19063 -0.0631,0.32742 -0.11467,0.0595 -0.11467,-0.59531 z m 136.26042,0 c 0,-0.65485 0.0516,-0.92274 0.11466,-0.59532 0.0631,0.32743 0.0631,0.86321 0,1.19063 -0.0631,0.32742 -0.11466,0.0595 -0.11466,-0.59531 z m -22.56164,-10.69723 v -8.05139 l -0.59532,-0.12788 c -0.5246,-0.1127 -0.51674,-0.12274 0.0661,-0.0846 l 0.66146,0.0433 0.0702,7.92437 c 0.0525,5.93515 0.15218,7.97646 0.39688,8.13188 0.2298,0.14597 0.18937,0.20872 -0.13631,0.21157 -0.43092,0.004 -0.46302,-0.55419 -0.46302,-8.04734 z m 6.41614,7.85326 c 3.01956,-0.0424 7.96065,-0.0424 10.98021,0 3.01956,0.0425 0.54901,0.0772 -5.4901,0.0772 -6.03912,0 -8.50967,-0.0347 -5.49011,-0.0772 z"
         id="path61158" />
      <path
         style="fill:#d38d5f;stroke-width:0.264583"
         d="m 152.11418,409.00553 0.0709,-6.4347 5.68855,-0.0677 c 3.12869,-0.0372 5.85222,-0.1285 6.05227,-0.2028 0.50942,-0.18921 59.89572,-0.0972 67.63418,0.10475 l 6.35,0.16574 0.0709,6.2792 0.0709,6.27919 -42.75619,0.002 c -23.5159,10e-4 -42.86785,0.0712 -43.00431,0.1555 -0.15258,0.0943 -0.22083,-2.32453 -0.17724,-6.28134 z m 12.16999,-16.55501 0.0717,-5.22552 h 31.22083 31.22083 l 0.0717,5.22552 0.0717,5.22552 h -31.36431 -31.36431 z m 21.74539,-9.83368 c -0.0606,-0.0606 -0.11011,-2.72466 -0.11011,-5.92005 v -5.80981 l 0.85989,0.18576 c 3.56383,0.76989 11.45289,0.90883 15.65351,0.2757 1.44253,-0.21742 2.66292,-0.39531 2.71198,-0.39531 0.0491,0 0.0892,2.64914 0.0891,5.88697 l -9e-5,5.88698 h -9.54709 c -5.25091,0 -9.59665,-0.0496 -9.6572,-0.11024 z m 30.47736,-16.61027 c 0.71215,-0.53779 1.50928,-1.2224 1.7714,-1.52136 0.26211,-0.29895 0.80559,-0.90073 1.20771,-1.33729 0.96433,-1.0469 3.76452,-4.78214 4.46287,-5.95313 2.79742,-4.69067 4.9123,-10.33432 6.29594,-16.80104 1.02101,-4.77189 1.01284,-4.49442 1.10845,-37.63698 l 0.0926,-32.08073 h 4.09201 4.09201 v 8.06979 8.06979 h 11.40306 11.40306 l -0.14872,1.52136 c -0.0818,0.83674 -0.2187,2.47385 -0.30424,3.63802 -0.2908,3.95753 -1.59555,9.81781 -3.12826,14.05061 -3.58398,9.89767 -9.11321,17.89131 -17.83584,25.78541 -1.67249,1.51362 -1.91827,1.85258 -1.91851,2.64584 -2.7e-4,1.05245 -1.1825,6.08921 -1.70395,7.25981 -0.19447,0.43656 -0.44054,1.0914 -0.54683,1.4552 -0.35154,1.20329 -1.81092,4.32537 -3.00704,6.43303 -3.92972,6.92449 -10.542,13.39212 -17.17349,16.7978 -1.60632,0.82494 -1.64713,0.72525 -0.16219,-0.39613 z m 24.47756,-44.31905 c 0.49189,-0.61129 1.20159,-1.47449 1.57711,-1.91823 3.48719,-4.12067 6.76079,-10.19601 8.63231,-16.02033 0.71351,-2.22051 1.66513,-6.37946 1.66513,-7.27729 0,-0.49146 0.14883,-0.98989 0.33073,-1.10762 0.30101,-0.19482 -12.90018,-0.58693 -13.36146,-0.39687 -0.28047,0.11556 -0.2489,27.83178 0.0317,27.83178 0.12657,0 0.63259,-0.50015 1.12447,-1.11144 z m -91.97441,11.58703 c -10.20426,-8.33089 -17.29786,-18.84884 -20.80511,-30.84851 -0.73134,-2.50221 -1.74765,-7.77117 -1.92654,-9.98802 -0.0851,-1.05503 -0.22166,-2.75282 -0.30337,-3.77286 l -0.14856,-1.85464 12.77167,0.0687 12.77167,0.0687 -0.0781,3.80679 c -0.0605,2.94877 0.002,3.8607 0.27533,4.04593 0.28392,0.19209 0.27538,0.2308 -0.0434,0.19675 -0.21829,-0.0233 -4.08186,-0.0283 -8.58573,-0.011 -6.36911,0.0244 -8.1183,0.1019 -7.87136,0.34885 0.17463,0.17462 0.3175,0.71907 0.3175,1.20989 0,0.97779 0.83732,4.64601 1.58398,6.93927 2.60087,7.98819 6.21965,13.98968 12.17436,20.19028 l 1.98437,2.06632 0.17226,2.96076 c 0.0947,1.62843 0.25572,3.76444 0.35772,4.74671 0.10201,0.98226 0.084,1.78239 -0.04,1.77807 -0.12398,-0.004 -1.29699,-0.88271 -2.60668,-1.95196 z"
         id="path61160" />
      <path
         style="fill:#a05a2c;stroke-width:0.264583"
         d="m 152.21338,420.01169 c -0.25461,-0.6635 -0.18639,-4.56139 0.0827,-4.72772 0.13384,-0.0827 19.45173,-0.15163 42.92865,-0.15313 l 42.6853,-0.003 0.0754,2.65105 0.0754,2.65106 h -42.84345 c -38.82355,0 -42.85852,-0.0393 -43.00405,-0.41852 z m 12.18663,-18.01412 c -0.097,-0.097 -0.17639,-1.10904 -0.17639,-2.24896 v -2.07257 h 31.35312 31.35313 v 2.24896 2.24896 h -31.17674 c -17.14721,0 -31.25611,-0.0794 -31.35312,-0.17639 z m 31.11058,-14.84201 -9.59114,-0.0694 v -2.21769 -2.21769 l 9.32656,-0.031 c 5.12961,-0.017 9.48052,0.0698 9.6687,0.19313 0.24377,0.1597 0.31983,0.82613 0.26458,2.31814 l -0.0776,2.094 z"
         id="path61162" />
    </g>
  </g>
</svg>
