<?xml version="1.0" encoding="UTF-8" standalone="no"?>
<!-- Created with Inkscape (http://www.inkscape.org/) -->

<svg
   width="185.72325mm"
   height="110.87984mm"
   viewBox="0 0 185.72325 110.87984"
   version="1.1"
   id="svg1184"
   inkscape:version="1.1 (c4e8f9ed74, 2021-05-24)"
   sodipodi:docname="wittycreatures-website-header.svg"
   xmlns:inkscape="http://www.inkscape.org/namespaces/inkscape"
   xmlns:sodipodi="http://sodipodi.sourceforge.net/DTD/sodipodi-0.dtd"
   xmlns="http://www.w3.org/2000/svg"
   xmlns:svg="http://www.w3.org/2000/svg">
  <sodipodi:namedview
     id="namedview1186"
     pagecolor="#ffffff"
     bordercolor="#666666"
     borderopacity="1.0"
     inkscape:pageshadow="2"
     inkscape:pageopacity="0.0"
     inkscape:pagecheckerboard="0"
     inkscape:document-units="mm"
     showgrid="false"
     fit-margin-top="0"
     fit-margin-left="0"
     fit-margin-right="0"
     fit-margin-bottom="0"
     inkscape:zoom="0.77771465"
     inkscape:cx="247.52009"
     inkscape:cy="370.95868"
     inkscape:window-width="2560"
     inkscape:window-height="1381"
     inkscape:window-x="0"
     inkscape:window-y="0"
     inkscape:window-maximized="1"
     inkscape:current-layer="layer1" />
  <defs
     id="defs1181" />
  <g
     inkscape:label="Layer 1"
     inkscape:groupmode="layer"
     id="layer1"
     transform="translate(-39.478582,-50.3642)">
    <g
       id="g4426"
       transform="matrix(1.6624923,0,0,1.6624923,-40.352792,20.317276)">
      <g
         id="g30274"
         transform="matrix(0.35277777,0,0,0.35277777,-2.1344816,-1.1416273)">
        <path
           style="fill:#ffffff;fill-opacity:1;fill-rule:nonzero;stroke:none"
           d="m 295.78136,87.70331 h -2.66016 v 15.69531 h 2.66016 v -9.183591 h 2.35937 v -2.695313 h -2.35937 z m 0,0"
           id="path996" />
        <path
           style="fill:#ffffff;fill-opacity:1;fill-rule:nonzero;stroke:none"
           d="M 327.73448,91.519716 V 87.70331 h -2.65625 v 15.69922 h 2.65625 v -9.187501 h 2.35938 v -2.695313 z m 0,0"
           id="path998" />
        <path
           style="fill:#ffffff;fill-opacity:1;fill-rule:nonzero;stroke:none"
           d="m 287.75402,103.39862 h 2.61718 V 91.519716 h -2.61718 z m 0,0"
           id="path1000" />
        <path
           style="fill:#ffffff;fill-opacity:1;fill-rule:nonzero;stroke:none"
           d="m 290.35167,87.70331 h -2.57812 v 2.746094 h 2.57812 z m 0,0"
           id="path1002" />
        <path
           style="fill:#ffffff;fill-opacity:1;fill-rule:nonzero;stroke:none"
           d="m 282.39464,100.78534 h -4.51953 v -9.265624 h -2.61328 v 9.265624 h -3.92578 c -0.53907,0 -0.97657,-0.4375 -0.97657,-0.980467 v -8.285157 h -2.61718 v 9.425784 c 0,1.35547 1.10156,2.45703 2.45703,2.45703 h 14.8125 V 91.519716 h -2.61719 z m 0,0"
           id="path1004" />
        <path
           style="fill:#ffffff;fill-opacity:1;fill-rule:nonzero;stroke:none"
           d="m 307.81261,91.519716 h -7.94531 v 11.875004 h 2.61328 v -9.257816 h 4.1914 c 0.54297,0 0.98047,0.4375 0.98047,0.976562 v 8.281254 h 2.61328 v -9.417972 c 0,-1.359375 -1.09765,-2.457032 -2.45312,-2.457032"
           id="path1006" />
        <path
           style="fill:#ffffff;fill-opacity:1;fill-rule:nonzero;stroke:none"
           d="m 319.77745,100.46894 c -1.52734,0.80859 -3.29297,0.375 -4.40234,-1.210942 l 8.17969,-4.347657 c -0.13672,-0.332031 -0.3086,-0.648437 -0.50391,-0.945312 -0.043,-0.07031 -0.0859,-0.136719 -0.13281,-0.203125 -1.10156,-1.5625 -2.91797,-2.589844 -4.97656,-2.589844 -0.8086,0 -1.58204,0.160156 -2.28907,0.449219 -0.0508,0.02344 -0.10547,0.04297 -0.15625,0.06641 -0.21875,0.09375 -0.42578,0.203125 -0.625,0.324219 -0.1875,0.105469 -0.35937,0.226562 -0.52734,0.347656 -1.50781,1.109375 -2.48828,2.886719 -2.48828,4.898437 0,3.363279 2.72265,6.089849 6.08594,6.089849 3.05078,0 5.57031,-2.25 6.01171,-5.183599 -0.65625,0 -2.40234,-0.0039 -2.41796,-0.0039 -0.21875,0.988282 -0.84766,1.824219 -1.75782,2.308599 m -3.48047,-6.45313 c 1.19922,-0.640625 2.35547,-0.421875 3.33594,0.390625 l -5.02344,2.667969 c -0.10156,-1.273438 0.44532,-2.398438 1.6875,-3.058594"
           id="path1008" />
        <path
           style="fill:#f8971e;fill-opacity:1;fill-rule:nonzero;stroke:none"
           d="m 333.26183,103.39081 h -2.65625 v -2.65625 h 2.65625 z m 0,0"
           id="path1010" />
      </g>
      <g
         id="g30855"
         transform="matrix(0.35277777,0,0,0.35277777,-2.1344816,-0.18673571)">
        <path
           style="fill:#f8971e;fill-opacity:1;fill-rule:nonzero;stroke:none"
           d="m 300.50792,53.668154 -1.05078,0.648437 -4.16016,2.585938 c -0.30078,0.167969 -0.58593,0.34375 -0.86328,0.539062 l -14.24218,8.855469 14.24218,8.847656 c 0.28516,0.195313 0.57813,0.378907 0.88282,0.546875 l 5.19531,3.226563 5.11328,-3.183594 c 0.0117,-0.0039 0.0273,-0.01953 0.0391,-0.02344 0.31641,-0.175782 0.62891,-0.371094 0.92969,-0.578126 l 14.23437,-8.835937 -14.24218,-8.847656 c -0.28516,-0.195313 -0.57813,-0.382813 -0.88282,-0.554688 z m 0,4.128906 c 4.70313,0 8.48438,3.792969 8.48438,8.5 0,4.707031 -3.78907,8.492188 -8.48438,8.492188 -4.70703,0 -8.49609,-3.792969 -8.49609,-8.492188 0,-4.703125 3.79687,-8.5 8.49609,-8.5 m -10.04687,4.726563 c -0.44141,1.175781 -0.69922,2.449218 -0.69922,3.773437 0,1.328125 0.25,2.597656 0.69922,3.769531 l -6.07422,-3.769531 z m 20.08984,0 6.07422,3.773437 -6.07422,3.777344 c 0.44141,-1.175781 0.70313,-2.449219 0.70313,-3.777344 0,-1.332031 -0.26172,-2.597656 -0.70313,-3.773437"
           id="path1060" />
        <path
           style="fill:#f8971e;fill-opacity:1;fill-rule:nonzero;stroke:none"
           d="m 322.91808,68.300966 c -0.65625,0.0078 -1.36719,0.183594 -2.08985,0.605469 l -18.21875,11.316406 0.17969,0.109375 c 0.51172,0.300782 1.1875,0.507813 1.9336,0.492188 0.65625,-0.0039 1.37109,-0.179688 2.08984,-0.601563 l 3.58203,-2.230468 14.63281,-9.09375 -0.1875,-0.117188 c -0.51172,-0.285156 -1.17578,-0.484375 -1.92187,-0.480469"
           id="path1062" />
        <path
           style="fill:#f8971e;fill-opacity:1;fill-rule:nonzero;stroke:none"
           d="m 296.28917,51.761904 c -0.65625,0.0039 -1.37109,0.179687 -2.08984,0.601562 l -3.58203,2.226563 -14.63672,9.097656 c 0.94531,0.636719 2.54687,0.960938 4.20312,0 l 18.22266,-11.316406 -0.18359,-0.109375 c -0.51172,-0.308594 -1.1836,-0.515625 -1.9336,-0.5"
           id="path1064" />
      </g>
    </g>
    <g
       id="g30177"
       transform="matrix(0.45382849,0,0,0.45382849,-3.09975,22.203536)">
      <path
         style="fill:#ffffff;fill-opacity:1;fill-rule:nonzero;stroke:none"
         d="m 251.19152,251.34394 c 0.3789,-1.63672 0.7539,-3.375 0.22265,-4.96875 -0.52734,-1.59375 -2.33594,-2.88672 -3.88672,-2.23828 -0.5039,0.21094 -0.91797,0.59765 -1.41015,0.84375 -0.6836,0.35156 -1.6875,0.375 -1.88672,-0.71875 -0.0664,-0.36719 0.004,-0.74219 0.15625,-1.08203 0.66406,-1.46485 0.35156,-2.84375 -0.45703,-4.04688 -0.38672,-0.58203 -1.125,-0.8125 -1.77735,-0.5664 -0.86328,0.32812 -1.62109,0.98828 -2.15234,1.76562 -0.75391,1.10547 -1.12109,2.42578 -1.43359,3.73047 -0.20704,0.86719 -0.39844,1.78125 -0.082,2.62891 0.17969,0.47656 0.53125,0.8789 1,1.07031 0.9961,0.41015 1.60157,-0.44531 2.42188,-0.63672 1.04687,-0.24609 2.06641,0.71484 2.29297,1.76562 0.23047,1.05079 -0.10938,2.12891 -0.44141,3.15235 -0.94531,2.90234 -1.89453,5.80469 -2.84375,8.71094 -0.53515,1.64062 -1.07031,3.41406 -0.55078,5.05468 0.70313,2.21485 3.26172,3.47657 5.56641,3.20313 2.30468,-0.27344 4.30468,-1.79297 5.73047,-3.625 -0.98438,0.28515 -2.47657,0.0312 -2.88282,-0.85156 -0.40625,-0.87891 -0.19531,-1.91016 0.0234,-2.85547 0.79688,-3.44532 1.59375,-6.89063 2.39063,-10.33594"
         id="path1086" />
      <path
         style="fill:#ffffff;fill-opacity:1;fill-rule:nonzero;stroke:none"
         d="m 264.70714,253.68378 c -0.32812,0.41797 -0.69141,0.82813 -1.17187,1.0586 -0.48047,0.23047 -1.10157,0.23828 -1.5,-0.11328 -0.46485,-0.40235 -0.48438,-1.10157 -0.45313,-1.71094 0.0937,-1.83203 4.13281,-8.34766 6.22266,-6.15235 1.46484,1.53907 -1.87891,5.375 -3.09766,6.91797 m 4.375,-13.58203 c -1.90234,-0.7539 -4.05859,-0.71094 -5.98828,-0.0234 -4.78125,1.70704 -7.45703,6.23829 -9.12891,10.80469 -1.60156,4.3711 -2.4375,9.42578 -0.28125,13.55469 2.11719,4.04687 7.1211,6.34375 11.57032,5.3125 3.34375,-0.77344 6.14453,-3.38281 7.375,-6.57031 0.45703,-1.1836 -0.77344,-2.33594 -1.91407,-1.77735 -1.15234,0.56641 -2.37109,1.04688 -3.39453,1.33985 -1.08984,0.30468 -2.23047,0.5039 -3.34765,0.33593 -1.1211,-0.16796 -2.21485,-0.74609 -2.80469,-1.71093 -0.58985,-0.96485 -0.5625,-2.14453 0.22265,-2.95703 2.45704,1.29296 5.6211,0.73437 7.83204,-0.94141 2.21093,-1.67969 3.55468,-4.30859 4.17578,-7.01172 0.90234,-3.90234 0.30859,-8.52734 -4.31641,-10.35547"
         id="path1088" />
      <path
         style="fill:#ffffff;fill-opacity:1;fill-rule:nonzero;stroke:none"
         d="m 290.78527,250.46113 c -0.25,3.55078 -1.55469,7.02734 -3.75,9.82812 -0.48047,0.60938 -1.23438,1.2461 -1.9375,0.92188 -0.57032,-0.26172 -0.71094,-0.99219 -0.75,-1.61719 -0.2461,-3.85938 0.60937,-7.77734 2.43359,-11.18359 0.55859,-1.04297 2.03125,-3.125 3.43359,-2.08594 0.96485,0.71484 0.63672,3.14844 0.57032,4.13672 m 9.05859,10.08593 c -0.71094,-0.22265 -1.41016,-0.82812 -1.69922,-1.47265 -0.47656,-1.07031 -0.25781,-2.3086 -0.0312,-3.46094 1,-5.04297 1.99609,-10.08984 2.99609,-15.13281 -0.98828,-1.17578 -2.35156,-2.28125 -3.8789,-2.1211 -1.52344,0.15625 -3.64063,1.98047 -4.36328,3.33204 -1.17188,-2.79688 -5.0586,-3.59766 -7.8125,-2.32422 -2.75391,1.26953 -4.54688,3.97265 -5.91797,6.67968 -2.17188,4.28907 -3.65235,8.92969 -4.36719,13.6875 -0.3125,2.08985 -0.4375,4.38282 0.72656,6.14844 1.42188,2.16016 4.42188,2.8125 6.94141,2.22656 2.52344,-0.58593 4.6875,-2.15234 6.77344,-3.6875 0.4375,1.63282 1.62109,2.90625 3.1914,3.52735 1.57422,0.61719 3.4336,0.44531 4.86719,-0.44922 1.88672,-1.17969 2.8125,-3.3125 3.44922,-5.5 0.1875,-0.64453 -0.23828,-1.25391 -0.875,-1.45313"
         id="path1090" />
      <path
         style="fill:#ffffff;fill-opacity:1;fill-rule:nonzero;stroke:none"
         d="m 339.58605,258.04316 c -0.25,0.0195 -0.53125,0.33984 -0.84375,0.96484 -0.65625,1.31641 -1.28907,1.9961 -1.89453,2.03906 -1.14454,0.082 -1.80079,-1.10546 -1.98047,-3.57031 -0.125,-1.73828 -0.008,-4.46484 0.34765,-8.17578 0.35938,-3.71094 2.28125,-6.24219 2.20313,-7.32422 -0.11328,-1.55859 -0.77735,-2.29687 -1.98828,-2.20703 -1.60547,0.11328 -2.98047,0.53125 -4.12891,1.24609 -1.14844,0.71875 -1.6875,1.5586 -1.62109,2.51954 0.0273,0.35937 0.12109,0.79296 0.28125,1.29296 0.16406,0.5 0.26172,1.02344 0.30078,1.5625 0.29687,4.08594 -4.60938,11.51954 -5.96485,11.61719 -0.85546,0.0625 -1.33984,-0.65625 -1.44921,-2.16015 -0.16797,-2.34375 2.83203,-11.8711 2.75,-13.01563 -0.11329,-1.55859 -0.77735,-2.29687 -1.98829,-2.21094 -1.60546,0.11719 -2.98046,0.53516 -4.13281,1.25 -1.14844,0.71875 -1.6875,1.5586 -1.61719,2.51953 0.0274,0.35938 0.11719,0.79297 0.28125,1.29297 0.16016,0.5 0.26172,1.01953 0.30079,1.5625 0.0664,0.90235 -1.85157,3.34375 -2.19141,7.05078 -0.34375,3.70704 -0.44141,6.58204 -0.29297,8.625 0.14063,1.92188 0.63281,3.53125 1.48047,4.82813 0.84766,1.29687 1.92969,1.89844 3.24609,1.80469 1.96094,-0.14063 3.83985,-1.1836 5.63672,-3.125 0.69531,-0.77344 1.37891,-1.76172 2.04297,-2.95703 0.18359,1.01562 0.5,1.92968 0.95313,2.73828 0.98437,1.74218 2.37109,2.54687 4.15234,2.41797 2.67578,-0.19141 4.77734,-2.33594 6.30859,-6.4336 0.48828,-1.18359 0.70703,-2.16406 0.64844,-2.94531 -0.0586,-0.83984 -0.33984,-1.24219 -0.83984,-1.20703"
         id="path1092" />
      <path
         style="fill:#ffffff;fill-opacity:1;fill-rule:nonzero;stroke:none"
         d="m 351.37902,243.30488 c -0.99219,-0.35547 -2.01563,-0.32032 -3.00391,-0.28516 -0.33984,0.0117 -0.68359,0.0234 -1.01953,0.0156 -1.0625,-0.0234 -2.01563,-0.39844 -2.1211,-0.83594 -0.0664,-0.27735 0.21875,-0.73047 0.72657,-1.16016 0.19531,-0.16797 0.40625,-0.32422 0.61328,-0.48047 0.51172,-0.38281 1.03906,-0.77734 1.44922,-1.3164 1.04687,-1.3711 1.01172,-3.09375 -0.0937,-4.28125 -1.28125,-1.38282 -3.71875,-1.16407 -5.11328,-0.10938 -1.13672,0.8711 -1.79297,2.21485 -1.94532,3.99219 -0.043,0.48047 -0.0508,0.96094 -0.0586,1.44531 -0.008,0.7461 -0.0195,1.44922 -0.16797,2.1211 -0.082,0.36718 -0.19922,0.74609 -0.31641,1.125 -0.43359,1.38671 -0.96875,3.11328 0.22266,4.53515 0.58594,0.69922 1.40234,1.06641 2.19141,1.42188 0.58593,0.25781 1.13672,0.50781 1.48437,0.84765 0.57813,0.56641 0.67188,1.51953 0.29297,2.83985 -0.3125,1.07031 -0.77734,2.10547 -1.26953,3.20312 -0.24219,0.54688 -0.48438,1.08985 -0.71094,1.64063 -0.61328,1.5 -1.28515,3.48828 -1.00781,5.55859 0.29297,2.18359 1.70312,4.0625 3.67578,4.89844 0.6875,0.29297 1.49609,0.44531 2.31641,0.44531 1.63281,0 3.32422,-0.60156 4.23047,-1.90234 l 0.29296,-0.41797 -0.21093,-0.46485 c -1.08594,-2.38281 -1.40625,-5.05078 -0.89844,-7.51171 0.42187,-2.04297 1.17969,-4.09766 1.91406,-6.08204 l 0.59375,-1.625 c 0.46875,-1.30859 0.875,-2.59765 0.73047,-3.96875 -0.17969,-1.67187 -1.27734,-3.10546 -2.79687,-3.64843"
         id="path1094" />
      <path
         style="fill:#ffffff;fill-opacity:1;fill-rule:nonzero;stroke:none"
         d="m 364.21886,252.58222 c -0.29297,0.25781 -0.78125,0.33594 -1.06641,0.0703 -0.22656,-0.21484 -0.2539,-0.5625 -0.25781,-0.875 -0.0234,-1.4375 0.46094,-9.83203 2.47656,-9.77734 2.03125,0.0547 -0.19531,8.41797 -0.58593,9.57422 -0.12891,0.36719 -0.27344,0.75 -0.56641,1.00781 m 1.22656,4.30078 c 2.21485,-1.65625 4.24219,-3.61719 5.56641,-6.03906 1.91797,-3.51172 2.21094,-8.11328 -0.7461,-11.29688 -0.95312,-1.02343 -2.21484,-1.76171 -3.58984,-2.01171 -4.32422,-0.79297 -7.36328,2.76562 -9.09766,6.32812 -1.98828,4.08984 -3.01171,8.64844 -2.95312,13.19922 0.0234,1.91016 0.24219,3.85156 0.99609,5.60937 0.75,1.75391 2.08985,3.32422 3.86328,4.03516 2.35157,0.94531 5.125,0.24219 7.19532,-1.22656 1.58984,-1.12891 2.83593,-2.65235 3.9414,-4.27735 0.28907,-0.42187 -0.14062,-0.97265 -0.625,-0.79687 -0.6914,0.25391 -1.41406,0.46484 -2,0.54687 -1.03125,0.14454 -2.17968,-0.0898 -2.89843,-0.83984 -0.89063,-0.92187 -0.67969,-2.46094 0.34765,-3.23047"
         id="path1096" />
      <path
         style="fill:#ffffff;fill-opacity:1;fill-rule:nonzero;stroke:none"
         d="m 382.38292,243.24238 c -0.22265,-0.125 -0.4414,-0.25 -0.65625,-0.37891 0.23047,-0.33984 0.52735,-0.63672 0.89844,-0.86719 0.52344,-0.32812 1.19531,-0.49609 1.76953,-0.29297 0.57031,0.20313 0.94531,0.86329 0.67578,1.39844 -0.4375,0.875 -1.82422,0.61328 -2.6875,0.14063 m 2.23438,6.60547 c -0.61719,-0.41407 -1.22266,-0.86719 -1.75,-1.37891 0.0351,0.004 0.0703,0.008 0.10547,0.0117 5.27343,0.41406 10.875,-5.39063 6.58984,-10.64063 -0.64063,-0.78125 -1.47656,-1.4375 -2.45313,-1.8125 -2.8789,-1.09375 -5.78125,0.0977 -8.11718,1.73047 -4.1836,2.92578 -4.70703,6.05469 -4.73047,6.13672 -0.70313,2.46484 -0.10547,5.28516 1.88281,6.92578 1.22656,1.01172 2.84375,1.5 4.29297,2.21875 1.45312,0.71875 2.85547,1.83594 3.07031,3.375 0.16016,1.12891 -0.4414,2.375 -1.52344,2.9375 -1.08203,0.5586 -2.57812,0.30469 -3.23437,-0.63281 -0.47266,-0.67969 -0.39063,-1.64844 0.11328,-2.32031 0.33594,-0.45313 0.1875,-1.06641 -0.34766,-1.2461 -1.89843,-0.65234 -4.52343,0.1836 -5.55468,1.91407 -1.25782,2.09765 -0.69922,4.77734 0.74609,6.67187 1.94141,2.54297 5.42969,3.95703 8.80859,3.52734 3.375,-0.42578 6.5,-2.69921 7.76954,-5.69531 1.26953,-2.99609 0.60546,-6.58594 -1.67579,-8.86328 -1.14843,-1.14453 -2.6289,-1.94141 -3.99218,-2.85937"
         id="path1098" />
      <path
         style="fill:#ffffff;fill-opacity:1;fill-rule:nonzero;stroke:none"
         d="m 233.98058,251.03535 c -0.63281,0.82421 -1.3711,1.55859 -2.11328,2.29687 -3.46875,3.44531 -10.22657,2.24609 -12.76953,-1.80078 -0.88672,-1.41016 -1.13672,-3.125 -1.50391,-4.75391 -0.88672,-3.98437 -0.66406,-9.30859 1.36328,-12.85156 -0.17578,3.10547 2.65625,5.80469 5.72656,6.28125 3.07032,0.47656 6.17969,-0.82812 8.67578,-2.67969 3.05079,-2.26562 5.5,-5.48828 6.32032,-9.19922 0.82422,-3.71093 -0.15235,-7.89843 -2.92578,-10.5 -3.34375,-3.14062 -8.58204,-3.45703 -12.94922,-2.05078 -7.1836,2.3125 -12.57422,8.63672 -15.26563,15.6836 -2.69531,7.05078 -3.0039,14.78906 -2.59765,22.32422 0.17968,3.38281 0.51171,6.80468 1.71875,9.96875 1.21093,3.16406 3.40234,6.07812 6.47265,7.50781 3.89844,1.8125 11.66797,1.10547 15.17578,-1.38281 3.50782,-2.48829 5.84375,-6.35157 7.27344,-10.40625 0.83594,-2.3711 1.34375,-5.05469 0.98438,-7.5 -0.25,-1.72657 -2.52735,-2.32032 -3.58594,-0.9375"
         id="path1100" />
      <path
         style="fill:#ffffff;fill-opacity:1;fill-rule:nonzero;stroke:none"
         d="m 314.76573,261.46503 c -1.30468,-0.28515 -2.58593,-1.2539 -2.93359,-2.47265 -0.43359,-1.51172 -0.16797,-3.125 0.11328,-4.67188 2.01172,-11.05469 7.3125,-33.22265 8.07813,-35.64453 0.33593,-1.05078 -0.48438,-2.11328 -1.58594,-2.04297 -3.6875,0.24219 -6.93359,0.53125 -10.63672,1.81641 -0.60156,3.08984 -5.01562,34.13672 -6.17187,40.70312 -0.35157,1.98047 -0.69141,4 -0.42579,5.9961 0.26172,1.99218 1.21875,3.99218 2.9375,5.03906 2.39844,1.45312 5.67579,0.63281 7.73047,-1.27734 1.8125,-1.67969 2.84766,-4.01563 3.55469,-6.40235 0.13672,-0.47265 -0.17969,-0.9375 -0.66016,-1.04297"
         id="path1102" />
      <path
         style="fill:#ffffff;fill-opacity:1;fill-rule:nonzero;stroke:none"
         d="m 302.40636,190.4455 c 4.23047,-0.0742 7.04687,-4.88281 4.31641,-8.42187 -2.4375,-3.15625 -7.62891,-0.13282 -8.59375,2.95312 -0.46094,1.46875 -0.14454,3.21485 0.96484,4.28906 0.86328,0.83985 2.10937,1.20313 3.3125,1.17969"
         id="path1152" />
      <path
         style="fill:#ffffff;fill-opacity:1;fill-rule:nonzero;stroke:none"
         d="m 296.78527,190.51972 c -2.7461,4.94922 -3.37891,7.05859 -3.3125,13.14063 0.0234,2.21484 0.51171,4.53906 2.90234,5.82031 1.88281,1.01172 4.17578,0.90234 6.07422,-0.082 2.17578,-1.125 4.03515,-2.0586 4.55859,-5.125 0.10547,-0.61719 -0.55078,-1.09375 -1.11719,-0.82813 -0.5664,0.26563 -1.17578,0.42578 -1.48046,0.33985 -0.64454,-0.1875 -1.08204,-0.8125 -1.23829,-1.46875 -0.15234,-0.65235 -0.0742,-1.33594 0.008,-2 0.47265,-3.92188 1.02734,-3.81641 1.91797,-7.6875 0.15625,-0.69141 -0.48829,-1.28907 -1.17188,-1.09766 -2.01562,0.56641 -4.11328,0.15625 -5.69141,-1.22266 -0.45312,-0.39843 -1.16015,-0.3164 -1.44921,0.21094"
         id="path1154" />
      <path
         style="fill:#ffffff;fill-opacity:1;fill-rule:nonzero;stroke:none"
         d="m 306.39464,227.49628 c -1.65625,0.4375 -3.39453,0.77344 -5.06641,0.41797 -1.67187,-0.35547 -3.79687,-1.53906 -3.60546,-3.24609 1.07031,-9.6875 23.83984,-12.45703 39.71484,-9.75391 -19.89063,10.29688 -25.86328,11.22266 -31.04297,12.58203 m 67.9375,-33.92187 c -2.58203,-1.30469 -5.99219,-0.79688 -8.01953,1.20703 -0.42578,0.41797 -0.37891,1.12891 0.13281,1.4375 1.28516,0.76562 2.09375,2.34375 2.05469,3.88281 -0.0508,1.89063 -1.17969,3.63672 -2.67188,4.79297 -1.48828,1.16016 -3.3125,1.80469 -5.13281,2.28516 -2.92578,0.76172 -5.89844,1.13672 -8.90234,1.27734 1.58984,-2.59766 3.01953,-5.29687 4.30469,-8.05078 2.05078,-4.39844 3.75781,-8.95313 5.3164,-13.55469 0.60938,-1.80078 1.20313,-3.63672 1.3125,-5.53906 0.10938,-1.89844 -0.3125,-3.90234 -1.53906,-5.35547 -1.22656,-1.45312 -3.34766,-2.21484 -5.10938,-1.50391 -1.39062,0.5625 -3.45703,2.33594 -3.76953,3.85547 -0.10937,0.54297 0.23828,1.03516 0.72657,1.29297 0.34765,0.1836 0.63281,0.4961 0.82031,0.85156 0.27734,0.52735 0.35937,1.13672 0.41406,1.73047 0.51953,5.79297 0.33984,10.80078 -3.76562,14.90625 -0.4375,0.44141 -1.03907,0.89453 -1.625,0.67969 -0.71094,-0.26172 -0.75782,-1.24609 -0.63282,-1.99609 0.56641,-3.36328 2.04688,-6.55078 2.32422,-9.95313 0.14453,-1.80859 -0.14453,-3.82031 -1.48828,-5.03125 -1.16406,-1.04687 -3.61328,-0.17969 -5.07422,0.375 -0.74609,0.28516 -1.33594,0.76953 -1.82422,1.36328 -0.57812,0.70313 -0.47265,1.6836 0.13282,2.36328 0.0547,0.0625 0.10546,0.125 0.14843,0.19532 0.3086,0.48437 0.375,1.07812 0.39453,1.65234 0.10938,3.77344 -1.64453,7.33203 -2.2539,11.05469 -0.17188,1.05469 -0.25,2.16015 0.0898,3.17578 0.5625,1.67578 2.26563,2.83984 4.02735,2.95703 1.75781,0.11719 3.50781,-0.71875 4.70312,-2.02344 -1.40234,2.3125 -3.02344,4.4961 -4.83203,6.52344 -3.9375,-0.17578 -7.89844,-0.45703 -11.8125,-0.75781 -31.67188,-2.41406 -48.85156,9.91797 -49.37891,21.86719 -0.14062,3.21093 2.69922,5.92578 5.53125,7.41015 2.83594,1.48828 6.12891,1.86719 9.32813,1.77344 9.21484,-0.27344 34.67969,-9.99219 41.68359,-16.01563 2.14844,-1.84765 4.12891,-3.87109 5.95703,-6.03125 4.13672,0.78125 8.3086,1.33204 12.50391,1.14454 6.19141,-0.27344 12.54687,-2.34375 16.76172,-6.90235 2.27734,-2.45703 3.86719,-5.67578 3.88281,-9.03515 0.0195,-3.35547 -1.73047,-6.79297 -4.71875,-8.30469"
         id="path1156" />
      <path
         style="fill:#ffffff;fill-opacity:1;fill-rule:nonzero;stroke:none"
         d="m 275.14073,172.85175 c -0.1914,1.83594 -1.23437,3.54688 -2.15625,5.05469 l -0.80468,1.31641 c -0.0508,-0.42188 -0.10157,-0.84375 -0.14844,-1.26563 -0.20313,-1.89844 -0.34766,-4.07422 0.52734,-5.89453 0.32422,-0.67578 0.92578,-1.29297 1.51563,-1.29297 0.0664,0 0.13281,0.008 0.19922,0.0273 0.68359,0.17188 0.95703,1.1875 0.86718,2.05469 m 107.00391,-26.10547 c -1.15234,-2.32422 -3.26562,-4.22265 -5.78516,-4.83203 -2.17187,-0.52734 -4.60546,-0.004 -6.28515,1.4336 -0.39063,0.33203 -0.30469,0.9375 0.12109,1.22656 2.16797,1.46484 2.89844,4.91797 1.98828,7.44531 -1.01953,2.84766 -4.36328,5.375 -6.48828,5.93359 -4.08594,1.07813 -10.02734,1.83594 -16.74219,2.375 -1.01953,-0.0195 -2.12109,-0.043 -3.28125,-0.0703 -1.57812,-0.0352 -3.24609,-0.0703 -4.9375,-0.10156 1.81641,-8.11719 3.375,-14.82031 3.71485,-15.88672 0.33203,-1.05078 -0.48438,-2.11328 -1.58594,-2.04297 -3.6875,0.24219 -6.9375,0.53125 -10.63672,1.81641 -0.23047,1.18359 -1.28515,7.85156 -2.5625,15.99609 -1.26953,0.004 -2.46875,0.0195 -3.58203,0.0469 1.80859,-8.08594 3.36328,-14.75391 3.69922,-15.81641 0.33203,-1.05078 -0.48438,-2.11328 -1.58594,-2.04297 -3.6875,0.24219 -6.93359,0.53125 -10.63672,1.81641 -0.24218,1.23437 -1.375,8.42187 -2.72265,17.02344 -35.73438,5.52343 -34.99219,31.75 -34.61328,44.84375 0.0273,0.96093 0.0508,1.85937 0.0625,2.6875 -2.21094,-6.0586 -4.40625,-12.28907 -6.02735,-18.64063 1.07422,-1.63672 2.42188,-3.76953 3.59766,-6.05078 3.17187,-6.14844 4.24219,-12.07422 3.08984,-17.13672 -0.51562,-2.25781 -1.46875,-3.80469 -2.83984,-4.60156 -1.48438,-0.86328 -3.49219,-0.8086 -5.23828,0.14062 -1.32422,0.71875 -2.48047,1.87891 -3.63672,3.65235 -4.03516,6.17578 -4.44531,13.51562 -4.08203,18.58593 0.11718,1.64063 0.33203,3.34375 0.65234,5.19141 -1.76953,2.99609 -3.64453,8.14844 -5.45703,13.13281 -1.32031,3.63282 -2.67188,7.34766 -3.99219,10.27344 2.2461,-12.16016 3.40625,-31.01172 2.51172,-42.75781 -0.33594,-4.44531 -1.00391,-9.0586 -3.59375,-12.67188 -3.38672,-4.73437 -10.11328,-7.01172 -15.99219,-5.42187 -5.58984,1.51562 -10.30468,6.29297 -12.01172,12.17578 -0.71875,2.48047 -0.85546,4.93359 -0.39453,7.08984 0.53516,2.4961 1.91797,4.69922 3.79297,6.03907 2.00391,1.4375 4.72266,2.07421 8.07422,1.88671 2.75781,-0.14843 4.83984,-0.8164 6.35547,-2.03906 1.80078,-1.44531 3.09766,-4.08203 2.08984,-6.3164 l -0.0977,-0.21485 -0.22657,-0.0625 c -0.39453,-0.10937 -0.72265,-0.4414 -0.89062,-0.91015 -0.19922,-0.54688 -0.13672,-1.17188 0.15625,-1.59766 0.57812,-0.83594 1.91797,-1.13672 2.98437,-0.67578 0.98829,0.42969 1.78907,1.40625 2.20313,2.68359 0.39062,1.21485 0.41797,2.54688 0.41016,3.8086 -0.0742,11.80468 -3.47657,32.53125 -6.60938,44.48046 l -1.25391,4.79688 c -0.74218,2.83203 0.0547,5.75391 2.12891,7.81641 1.55469,1.54296 3.58594,2.36718 5.69141,2.36718 0.71093,0 1.43359,-0.0937 2.14453,-0.28515 l 0.17578,-0.0469 c 2.84766,-0.76562 5.05469,-3.01172 5.75781,-5.86328 0.23828,-0.96875 0.50781,-2.09766 0.80078,-3.33984 1.69532,-7.11328 4.45703,-18.73047 7.51563,-24.57813 0.2539,0.92969 0.51562,1.86328 0.77344,2.79297 l 0.26171,0.9375 c 0.96875,3.49219 1.96875,7.21484 2.62891,10.91016 0.74219,4.1875 4.51172,7.08203 8.79688,6.73828 0.3125,-0.0273 0.6289,-0.0469 0.94531,-0.0664 4.07422,-0.23047 7.34375,-3.49609 7.60547,-7.58984 0.0469,-0.6875 0.0273,-1.72266 0.008,-3.03516 -0.12891,-7.52344 -0.39063,-23.17578 9.11328,-32.84375 3.85547,-3.92187 8.96875,-6.41406 15.24609,-7.46484 -1.66796,10.65234 -3.32421,21.20312 -3.86718,24.28515 -0.34766,1.98047 -0.6875,4 -0.42578,5.9961 0.26171,1.99609 1.22265,3.99609 2.9414,5.03906 2.39453,1.45703 5.67188,0.63281 7.73047,-1.27344 1.8125,-1.68359 2.84766,-4.01562 3.55078,-6.40625 0.14063,-0.47265 -0.17578,-0.9375 -0.65625,-1.04297 -1.30859,-0.28515 -2.58984,-1.2539 -2.9375,-2.47265 -0.43359,-1.51172 -0.16406,-3.125 0.11719,-4.67188 0.80859,-4.45312 2.44531,-12.25 4.16016,-20.125 1.18359,-0.0391 2.60937,-0.082 4.17968,-0.125 -1.71093,10.91797 -3.4375,21.92578 -3.99218,25.08203 -0.35157,1.98047 -0.69141,4 -0.42579,5.9961 0.26172,1.99609 1.21875,3.99609 2.9375,5.03906 2.39844,1.45703 5.67579,0.63281 7.73438,-1.27344 1.8125,-1.68359 2.84375,-4.01562 3.55078,-6.40625 0.13672,-0.47265 -0.17578,-0.9375 -0.66016,-1.04297 -1.30468,-0.28515 -2.58593,-1.2539 -2.93359,-2.47265 -0.43359,-1.51172 -0.16406,-3.125 0.11328,-4.67188 0.82031,-4.51172 2.49219,-12.44922 4.23047,-20.42968 12.14453,0.14843 27.40625,0.67578 35.60547,-2.85157 3.35547,-1.44531 7.92187,-6.71875 8.72656,-11.71484 0.41016,-2.5625 0.16406,-5.27344 -0.98828,-7.59766"
         id="path1158" />
    </g>
    <g
       id="g4460"
       transform="matrix(1.286443,0,0,1.286443,0.91289,18.152349)">
      <path
         style="fill:#3f3d3d;fill-opacity:1;fill-rule:nonzero;stroke:none;stroke-width:0.352778"
         d="m 54.286568,59.756614 -4.43314,-12.87501 c -1.34497,-3.905362 -5.59897,-5.980687 -9.50295,-4.635722 -3.90536,1.343586 -5.98069,5.598968 -4.63573,9.502951 l 3.19843,9.29211 1.23334,3.5829 c 0.14746,0.427192 0.61323,0.654568 1.04042,0.507118 l 0.13092,-0.04547 c 0.42719,-0.146075 0.65319,-0.611851 0.50712,-1.039044 l -0.81442,-2.363332 c -0.13643,-0.396875 0.0744,-0.829582 0.47129,-0.966008 l 10e-4,-0.0014 c 0.39687,-0.136426 0.8282,0.07442 0.966,0.47129 l 0.37758,1.101051 c 0.15572,0.451996 0.64768,0.690397 1.0983,0.536056 0.45199,-0.155719 0.69177,-0.647678 0.53605,-1.098296 l -0.37072,-1.078967 c -0.1378,-0.396875 0.0744,-0.829582 0.47129,-0.966008 l 0.022,-0.0083 c 0.39687,-0.136426 0.82958,0.07441 0.966,0.471287 l 0.08728,0.250834 c 0.16674,0.487825 0.69866,0.746898 1.18511,0.578778 0.48783,-0.168123 0.7469,-0.698665 0.57878,-1.18649 l -0.0717,-0.206707 c -0.13642,-0.396875 0.0744,-0.829578 0.47129,-0.966004 l 0.11024,-0.03721 c 0.39688,-0.137805 0.82958,0.07304 0.96601,0.469911 l 0.35553,1.036285 c 0.15572,0.450617 0.64768,0.690396 1.0983,0.534677 h 10e-4 c 0.45062,-0.15434 0.6904,-0.6463 0.53468,-1.096917 l -0.38585,-1.1231 c -0.13643,-0.396875 0.0744,-0.829581 0.47129,-0.966007 0.39687,-0.136423 0.82957,0.07441 0.966,0.471289 l 0.82131,2.385385 c 0.14745,0.427193 0.61323,0.654569 1.04042,0.507118 0.42719,-0.14745 0.65319,-0.611847 0.50712,-1.03904"
         id="path4436" />
      <g
         id="g4442">
        <path
           style="fill:#3f3d3d;fill-opacity:1;fill-rule:nonzero;stroke:none;stroke-width:0.352778"
           d="m 162.29996,108.18639 0.61874,-1.27745 -1.19614,0.0896 -0.69591,1.62471 0.0303,1.51033 1.4249,0.79651 1.51033,0.30041 -1.56546,-1.67294 z m 0,0"
           id="path4438" />
        <path
           style="fill:#3f3d3d;fill-opacity:1;fill-rule:nonzero;stroke:none;stroke-width:0.352778"
           d="m 170.79143,96.446877 1.33532,0.04961 z m 3.55671,1.371149 -1.33669,-1.176842 -0.26459,-0.671107 -0.39412,-1.107941 -0.73449,-2.071193 -1.93063,-0.162606 -1.82452,0.355533 -1.70464,0.635275 -1.17271,1.416621 -1.99677,0.210842 -1.25402,2.310969 -1.71566,-0.04547 -1.59576,0.530543 -1.87,-1.000457 -1.10932,1.912719 -1.82866,-0.176389 -0.76068,0.54157 2.17868,0.558105 -1.83968,1.944412 -2.15938,-1.27882 -0.80891,1.99402 0.42719,0.30593 -0.50574,-0.11438 -0.004,0.011 -0.008,-0.0138 -1.90583,-0.43408 0.0482,2.29719 1.83692,-0.79513 1.40284,0.0758 0.44649,0.34175 1.37115,0.0207 1.60955,0.43684 2.03811,-0.42582 1.30363,1.67156 -0.68488,-0.7965 -0.40653,2.03812 1.72255,-0.63528 1.58337,0.0413 1.55993,-0.27836 1.48553,-0.0744 1.49655,-0.0606 1.3932,-0.50437 2.08635,0.22049 0.17501,-2.09462 2.04776,-0.38172 -0.0551,-1.93338 0.28526,-1.553052 2.22002,-0.609092 0.14883,-1.00597 0.87367,-0.146071 z m 0,0"
           id="path4440" />
      </g>
      <g
         id="g4448">
        <path
           style="fill:#3f3d3d;fill-opacity:1;fill-rule:nonzero;stroke:none;stroke-width:0.352778"
           d="m 165.38401,56.672563 -1.55305,-4.857584 c 0.0124,-0.08819 -0.004,-0.165364 -0.0717,-0.223241 l -1.85622,-5.809809 -8.33024,7.599881 4.7873,5.222762 z m 0,0"
           id="path4444" />
        <path
           style="fill:#3f3d3d;fill-opacity:1;fill-rule:nonzero;stroke:none;stroke-width:0.352778"
           d="m 153.63899,54.357459 3.05235,10.014204 8.43911,-6.930154 -7.06934,1.959572 z m 0,0"
           id="path4446" />
      </g>
      <path
         style="fill:#3f3d3d;fill-opacity:1;fill-rule:nonzero;stroke:none;stroke-width:0.352778"
         d="m 49.581948,102.6012 c -0.0331,-0.20809 -0.10473,-0.41755 -0.21084,-0.6022 -0.0165,-0.0813 -0.0317,-0.15986 -0.0455,-0.23565 0.58153,-1.12724 0.5581,-2.503895 0.1502,-3.706924 -0.12264,-0.361043 -0.28387,-0.720711 -0.55672,-0.986674 -0.13367,-0.129536 -0.28664,-0.221865 -0.44924,-0.296276 -0.0593,-0.133671 -0.11989,-0.268718 -0.18328,-0.40101 0.0882,-0.184658 0.0965,-0.402389 -0.0248,-0.56224 l -0.13505,-0.210841 c -0.11714,-0.122646 -0.23427,-0.22462 -0.3514,-0.316949 -0.21635,-0.453373 -0.4644,-0.924663 -0.7028,-1.168577 -0.77721,-0.795126 -1.92374,-1.10932 -3.03031,-1.215428 -1.10656,-0.107488 -2.22966,-0.04134 -3.32382,-0.235645 -0.71107,-0.126778 -1.39871,-0.359668 -2.07809,-0.604958 -0.88332,-0.319705 -1.75975,-0.661458 -2.62654,-1.02526 -0.0717,0.712445 0.17915,1.449694 0.66973,1.969216 l 0.004,0.0193 c -0.33762,0.0028 -0.65457,0.141936 -0.96876,0.265959 -1.81075,0.712445 -3.81166,0.939825 -5.73815,0.650434 -0.0276,0.402389 0.23013,0.770325 0.53054,1.039043 0.59256,0.530543 1.40698,0.804775 2.19935,0.74276 -0.30868,0.195682 -0.42444,0.581533 -0.54157,0.927421 -0.4203,1.237477 -0.98943,2.921441 -1.94028,3.817169 0.44924,0.19568 0.98392,0.091 1.40974,-0.15296 0.42581,-0.24392 0.76481,-0.611856 1.09554,-0.972899 0.0276,2.601739 -0.47543,5.210359 -1.46624,7.616419 1.11484,-0.17639 2.11529,-0.95636 2.55626,-1.9954 l 0.3514,0.16536 c 0.0165,0.11438 0.0358,0.226 0.0606,0.339 l -0.0207,-0.32108 0.16123,0.0758 c 0.0854,0.85162 0.48644,1.6247 0.92741,2.35644 0.70556,1.16995 4.17821,3.52089 9.39409,2.58382 5.17591,-0.93018 5.27237,-4.40559 4.89341,-6.92464 0.0772,-0.18328 0.022,-0.42719 -0.01,-0.63252"
         id="path4450" />
    </g>
  </g>
</svg>
